<svg width="24" height="26" viewBox="0 0 24 26" fill="none" xmlns="http://www.w3.org/2000/svg">
<path d="M18 2.5V4.5M6 2.5V4.5" stroke="#777777" stroke-width="1.5" stroke-linecap="round" stroke-linejoin="round"/>
<path d="M2.5 13.7432C2.5 9.38594 2.5 7.20728 3.75212 5.85364C5.00424 4.5 7.01949 4.5 11.05 4.5H12.95C16.9805 4.5 18.9958 4.5 20.2479 5.85364C21.5 7.20728 21.5 9.38594 21.5 13.7432V14.2568C21.5 18.6141 21.5 20.7927 20.2479 22.1464C18.9958 23.5 16.9805 23.5 12.95 23.5H11.05C7.01949 23.5 5.00424 23.5 3.75212 22.1464C2.5 20.7927 2.5 18.6141 2.5 14.2568V13.7432Z" stroke="#777777" stroke-width="1.5" stroke-linecap="round" stroke-linejoin="round"/>
<path d="M11.9955 14.0417H12.0045M11.9955 18.2084H12.0045M15.991 14.0417H16M8 14.0417H8.00897M8 18.2084H8.00897" stroke="#777777" stroke-width="2" stroke-linecap="round" stroke-linejoin="round"/>
<path d="M3.5 8.83331H20.5" stroke="#777777" stroke-width="1.5" stroke-linecap="round" stroke-linejoin="round"/>
<path d="M3 8.83331H21" stroke="#777777" stroke-width="1.5" stroke-linecap="round" stroke-linejoin="round"/>
</svg>
