<svg width="24" height="24" viewBox="0 0 24 24" fill="none" xmlns="http://www.w3.org/2000/svg">
<path d="M10.247 6.7402C11.0733 7.56657 11.4865 7.97975 12 7.97975C12.5135 7.97975 12.9267 7.56658 13.753 6.74022L15.5066 4.98669C15.9142 4.57911 16.1181 4.37524 16.3301 4.25283C17.3965 3.63716 18.2747 4.24821 19.0132 4.98669C19.7517 5.72518 20.3627 6.60345 19.7471 7.66981C19.6247 7.88183 19.4209 8.08563 19.0133 8.49321L17.2599 10.2466C16.4335 11.073 16.0201 11.4864 16.0201 11.9999C16.0201 12.5134 16.4333 12.9266 17.2597 13.7529L19.0132 15.5065C19.4208 15.9141 19.6247 16.1179 19.7471 16.3299C20.3627 17.3963 19.7517 18.2746 19.0132 19.013C18.2748 19.7516 17.3964 20.3626 16.3301 19.7469C16.1181 19.6246 15.9142 19.4208 15.5066 19.013L13.7533 17.2598C12.9272 16.4337 12.5135 16.02 12 16.02C11.4866 16.02 11.0729 16.4336 10.2468 17.2598L8.49341 19.013C8.08578 19.4208 7.88196 19.6246 7.66993 19.7469C6.60365 20.3626 5.72522 19.7516 4.98681 19.013C4.24828 18.2746 3.63732 17.3963 4.25295 16.3299C4.37537 16.1179 4.57918 15.9141 4.98681 15.5065L6.74032 13.7529C7.56669 12.9266 7.97988 12.5134 7.97988 11.9999C7.97988 11.4864 7.56648 11.073 6.7401 10.2466L4.98673 8.49321C4.57916 8.08563 4.37536 7.88183 4.25295 7.66981C3.63729 6.60345 4.24833 5.72518 4.98681 4.98669C5.7253 4.24821 6.60357 3.63716 7.66993 4.25283C7.88195 4.37524 8.08581 4.5791 8.4934 4.98668L10.247 6.7402Z" stroke="$color-icons" stroke-width="1.5" stroke-linecap="round" stroke-linejoin="round"/>
</svg>
