<svg width="14" height="14" viewBox="0 0 14 14" fill="none" xmlns="http://www.w3.org/2000/svg">
<path d="M13.3643 2.05013L8.41458 6.99988L13.3643 11.9496C13.7532 12.3385 13.7532 12.9749 13.3643 13.3638C12.9754 13.7528 12.339 13.7528 11.9501 13.3638L7.00037 8.41409L2.05062 13.3638C1.66171 13.7528 1.02532 13.7528 0.636408 13.3638C0.247499 12.9749 0.247499 12.3385 0.636408 11.9496L5.58616 6.99988L0.636408 2.05013C0.247499 1.66122 0.247499 1.02483 0.636408 0.63592C1.02532 0.247011 1.66171 0.247011 2.05062 0.63592L7.00037 5.58567L11.9501 0.63592C12.339 0.247011 12.9754 0.247011 13.3643 0.63592C13.7532 1.02483 13.7532 1.66122 13.3643 2.05013Z" fill="#25282B"/>
</svg>
