<svg width="21" height="21" viewBox="0 0 21 21" fill="none" xmlns="http://www.w3.org/2000/svg">
<path d="M15.6733 14.4939C15.9987 14.8193 15.9987 15.3469 15.6733 15.6724C15.3478 15.9978 14.8202 15.9978 14.4947 15.6724L10.5007 11.6784L6.50674 15.6724C6.18131 15.9978 5.65367 15.9978 5.32823 15.6724C5.00279 15.3469 5.00279 14.8193 5.32822 14.4939L9.32216 10.4999L5.32806 6.50583C5.00262 6.18039 5.00263 5.65276 5.32806 5.32733C5.6535 5.00189 6.18114 5.00189 6.50658 5.32733L10.5007 9.32134L14.4946 5.32734C14.82 5.0019 15.3477 5.0019 15.6731 5.32733C15.9985 5.65277 15.9985 6.1804 15.6731 6.50584L11.6792 10.4998L15.6733 14.4939Z" fill="#46332E"/>
</svg>