<svg width="34" height="34" viewBox="0 0 36 36" fill="none" xmlns="http://www.w3.org/2000/svg">
<rect x="0.5" y="0.5" width="33" height="33" rx="16.5" stroke="$color-text"/>
<path d="M12.0885 9.76364L11.0885 10.5445C9.57182 11.7289 8.81348 12.321 8.40674 13.156C8 13.991 8 14.9555 8 16.8846V18.9767C8 22.763 8 24.6562 9.17157 25.8325C10.1147 26.7793 11.5204 26.964 14 27V23.0057C14 22.0738 14 21.6078 14.1522 21.2403C14.3552 20.7502 14.7446 20.3609 15.2346 20.1579C15.6022 20.0057 16.0681 20.0057 17 20.0057C17.9319 20.0057 18.3978 20.0057 18.7654 20.1579C19.2554 20.3609 19.6448 20.7502 19.8478 21.2403C20 21.6078 20 22.0738 20 23.0057V27C22.4796 26.964 23.8853 26.7793 24.8284 25.8325C26 24.6562 26 22.763 26 18.9767V16.8846C26 14.9555 26 13.991 25.5933 13.156C25.1865 12.321 24.4282 11.7289 22.9115 10.5445L21.9115 9.76364C19.5521 7.92121 18.3724 7 17 7C15.6276 7 14.4479 7.92121 12.0885 9.76364Z" stroke="$color-text" stroke-width="1.5" stroke-linejoin="round"/>
</svg>
