<svg
              width="34"
              height="34"
              viewBox="0 0 36 36"
              fill="none"
              xmlns="http://www.w3.org/2000/svg"
            >
              <circle cx="17" cy="17" r="16.5" stroke="$color-text" />
              <path
                d="M10.636 23.3637C9.00736 21.735 8 19.485 8 16.9998C8 12.0292 12.0294 7.99976 17 7.99976C19.4853 7.99976 21.7353 9.00711 23.364 10.6358M25.2941 13.4998C25.7487 14.5756 26 15.7583 26 16.9998C26 21.9703 21.9706 25.9998 17 25.9998C15.7586 25.9998 14.5759 25.7484 13.5 25.2938"
                stroke="$color-text"
                strokeWidth="1.5"
                strokeLinecap="round"
                strokeLinejoin="round"
              />
              <path
                d="M20.8292 8.82142C23.5323 7.13929 25.7205 6.51927 26.6005 7.39779C28.1408 8.93534 25.0911 14.4807 19.7889 19.7837C14.4866 25.0867 8.93971 28.1393 7.39946 26.6017C6.52414 25.7279 7.13121 23.5598 8.79165 20.8773"
                stroke="$color-text"
                strokeWidth="1.5"
                strokeLinecap="round"
                strokeLinejoin="round"
              />
            </svg>