<svg width="54" height="54" viewBox="0 0 54 54" fill="none" xmlns="http://www.w3.org/2000/svg">
<path d="M27 49.5C25.1591 49.5 23.4005 48.7593 19.8831 47.2777C11.1277 43.5902 6.75 41.7463 6.75 38.6446V16.9703M27 49.5C28.8409 49.5 30.5996 48.7593 34.117 47.2777C42.8724 43.5902 47.25 41.7463 47.25 38.6446V16.9703M27 49.5V27.0657M6.75 16.9703C6.75 18.3483 8.55353 19.2184 12.1606 20.9587L18.7333 24.1299C22.7898 26.0872 24.8182 27.0657 27 27.0657M6.75 16.9703C6.75 15.5923 8.55353 14.7221 12.1606 12.9818L15.75 11.25M47.25 16.9703C47.25 18.3483 45.4464 19.2184 41.8394 20.9587L35.2667 24.1299C31.2102 26.0872 29.1818 27.0657 27 27.0657M47.25 16.9703C47.25 15.5923 45.4464 14.7221 41.8394 12.9818L38.25 11.25M13.5 29.3092L18 31.5527" stroke="$color-text" stroke-width="2" stroke-linecap="round" stroke-linejoin="round"/>
<path d="M22.5 4.5L27 9M27 9L31.5 13.5M27 9L22.5 13.5M27 9L31.5 4.5" stroke="$color-text" stroke-width="2" stroke-linecap="round"/>
</svg>
