<svg width="21" height="21" viewBox="0 0 21 21" fill="none" xmlns="http://www.w3.org/2000/svg">
<path d="M20.8137 19.929L15.7104 14.8257C17.0794 13.2519 17.9082 11.1984 17.9082 8.9541C17.9082 4.01375 13.8898 0 8.9541 0C4.01375 0 0 4.0184 0 8.9541C0 13.8898 4.0184 17.9082 8.9541 17.9082C11.1984 17.9082 13.2519 17.0794 14.8257 15.7104L19.929 20.8137C20.0501 20.9348 20.2131 21 20.3714 21C20.5297 21 20.6927 20.9395 20.8137 20.8137C21.0559 20.5716 21.0559 20.1712 20.8137 19.929ZM1.25255 8.9541C1.25255 4.70754 4.70754 1.25721 8.94944 1.25721C13.196 1.25721 16.6463 4.7122 16.6463 8.9541C16.6463 13.196 13.196 16.6557 8.94944 16.6557C4.70754 16.6557 1.25255 13.2007 1.25255 8.9541Z" fill="#737373"/>
</svg>
