<svg width="55" height="55" viewBox="0 0 55 55" fill="none" xmlns="http://www.w3.org/2000/svg">
<path d="M32.683 8.24847C30.2396 5.80499 29.0179 4.58325 27.4997 4.58325C25.9814 4.58325 24.7598 5.80499 22.3163 8.24847C20.85 9.71475 19.397 10.3955 17.3065 10.3955C15.4813 10.3955 12.8844 10.0415 11.458 11.4799C10.0429 12.9069 10.3953 15.4931 10.3953 17.3067C10.3953 19.3972 9.71451 20.8502 8.24818 22.3166C5.80474 24.76 4.58303 25.9817 4.58301 27.4999C4.58305 29.0179 5.80479 30.2398 8.24825 32.6832C9.89087 34.3259 10.3953 35.3865 10.3953 37.693C10.3953 39.5183 10.0413 42.1152 11.4798 43.5416C12.9068 44.9567 15.4929 44.6042 17.3065 44.6042C19.5327 44.6042 20.6047 45.0396 22.1935 46.6285C23.5463 47.9815 25.3599 50.4166 27.4997 50.4166C29.6394 50.4166 31.453 47.9815 32.8058 46.6285C34.3946 45.0396 35.4667 44.6042 37.6928 44.6042C39.5064 44.6042 42.0925 44.9567 43.5196 43.5416M43.5196 43.5416C44.958 42.1152 44.604 39.5183 44.604 37.693C44.604 35.3865 45.1084 34.3259 46.751 32.6832C49.1947 30.2398 50.4163 29.0179 50.4163 27.4999C50.4163 25.9817 49.1947 24.76 46.751 22.3166M43.5196 43.5416H43.5413" stroke="#0EA538" stroke-width="3" stroke-linecap="round" stroke-linejoin="round"/>
<path d="M18.333 23.6217C18.333 23.6217 23.4893 22.9166 27.4997 32.0833C27.4997 32.0833 39.0928 9.16659 50.4163 4.58325" stroke="#0EA538" stroke-width="3" stroke-linecap="round" stroke-linejoin="round"/>
</svg>
