<svg xmlns="http://www.w3.org/2000/svg" width="24" height="24" viewBox="0 0 24 24" fill="none">
<path d="M5.63604 18.3637C4.00736 16.735 3 14.485 3 11.9998C3 7.02919 7.02944 2.99976 12 2.99976C14.4853 2.99976 16.7353 4.00711 18.364 5.63579M20.2941 8.49976C20.7487 9.57564 21 10.7583 21 11.9998C21 16.9703 16.9706 20.9998 12 20.9998C10.7586 20.9998 9.57589 20.7484 8.5 20.2938" stroke="white" stroke-width="1.5" stroke-linecap="round" stroke-linejoin="round"/>
<path d="M15.8292 3.82142C18.5323 2.13929 20.7205 1.51927 21.6005 2.39779C23.1408 3.93534 20.0911 9.48071 14.7889 14.7837C9.48663 20.0867 3.93971 23.1393 2.39946 21.6017C1.52414 20.7279 2.13121 18.5598 3.79165 15.8773" stroke="white" stroke-width="1.5" stroke-linecap="round" stroke-linejoin="round"/>
</svg>